# xmcd CD database file
#
# Track frame offsets:
#	150
#	18234
#	33754
#
# Disc length: 669 seconds
#
# Revision: 0
# Processed by: cddbd v1.5.2PL0 Copyright (c) Steve Scherf et al.
# Submitted via: CDex 1.51
#
DISCID=14029b03
DTITLE=Anna - anna
DYEAR=1900
DGENRE=Jazz
TTITLE0=tango
TTITLE1=heimat
TTITLE2=nimm mich zurück
EXTD=
EXTT0=
EXTT1=
EXTT2=
PLAYORDER=
